<svg width="2160" height="2160" viewBox="0 0 2160 2160" fill="none" xmlns="http://www.w3.org/2000/svg">
<g clip-path="url(#clip0_89_2)">
<path d="M1034.66 1379.96H1130.66V775.96H1034.66V1032H614.81V518H518.81V1642H614.81V1128H1034.66V1379.96Z" fill="#231F20"/>
<path d="M1075.91 518.039V517.789H874.23H778.23V867.789H874.23V618.339H1075.91V618.279C1333.49 619.269 1542.33 831.999 1540.08 1084.09C1537.89 1329.17 1336.87 1534.78 1086.63 1541.45H874.23V1292.22H778.23V1642.22H874.23V1642.01H1086.63V1641.71C1393.13 1636.53 1641.41 1383.24 1641.18 1079.5C1640.95 772.059 1386.21 517.399 1075.9 518.049L1075.91 518.039Z" fill="#231F20"/>
</g>
<defs>
<clipPath id="clip0_89_2">
<rect width="2160" height="2160" fill="white"/>
</clipPath>
</defs>
</svg>
